<?xml version="1.0" encoding="utf-8"?>
<!-- Generator: Adobe Illustrator 19.0.0, SVG Export Plug-In . SVG Version: 6.00 Build 0)  -->
<svg version="1.1" id="Layer_1" xmlns="http://www.w3.org/2000/svg" xmlns:xlink="http://www.w3.org/1999/xlink" x="0px" y="0px"
	 viewBox="0 0 187.8 101" style="enable-background:new 0 0 187.8 101;" xml:space="preserve">
<style type="text/css">
	.st0{fill:#3CD6CE;}
	.st1{fill:#999999;}
</style>
<g id="XMLID_81_">
	<path id="XMLID_82_" class="st0" d="M13.1,12.3h5.3v28.8h8.7v4.8h-14V12.3z"/>
	<path id="XMLID_84_" class="st0" d="M37.1,26.5h7.2v4.8h-7.2v9.8h9.1v4.8H31.8V12.3h14.4v4.8h-9.1V26.5z"/>
	<path id="XMLID_86_" class="st0" d="M69,45.9h-5.3l-0.9-6.1h-6.5l-0.9,6.1h-4.8l5.4-33.6h7.7L69,45.9z M56.9,35.3H62l-2.5-17
		L56.9,35.3z"/>
	<path id="XMLID_89_" class="st1" d="M78.5,21.6v24.3h-4.8V12.3h6.6l5.4,20.1V12.3h4.7v33.6h-5.4L78.5,21.6z"/>
	<path id="XMLID_91_" class="st0" d="M96.3,20.4c0-5.4,2.8-8.4,8-8.4s8,3.1,8,8.4v17.5c0,5.4-2.8,8.4-8,8.4s-8-3.1-8-8.4V20.4z
		 M101.6,38.2c0,2.4,1.1,3.3,2.7,3.3s2.7-0.9,2.7-3.3V20c0-2.4-1.1-3.3-2.7-3.3s-2.7,0.9-2.7,3.3V38.2z"/>
	<path id="XMLID_94_" class="st0" d="M126,39.7l4-27.4h4.8l-5.2,33.6h-7.9l-5.2-33.6h5.3L126,39.7z"/>
	<path id="XMLID_96_" class="st0" d="M144.8,12.3v25.9c0,2.4,1.1,3.3,2.7,3.3s2.7-0.9,2.7-3.3V12.3h5v25.6c0,5.4-2.7,8.4-7.9,8.4
		s-7.9-3.1-7.9-8.4V12.3H144.8z"/>
	<path id="XMLID_98_" class="st0" d="M168.4,11.9c5.1,0,7.8,3.1,7.8,8.4v1.1h-5V20c0-2.4-1-3.3-2.6-3.3s-2.6,0.9-2.6,3.3
		c0,6.9,10.3,8.2,10.3,17.8c0,5.4-2.7,8.4-7.9,8.4c-5.2,0-7.9-3.1-7.9-8.4v-2.1h5v2.4c0,2.4,1.1,3.3,2.7,3.3c1.7,0,2.7-0.9,2.7-3.3
		c0-6.9-10.3-8.2-10.3-17.8C160.6,15,163.2,11.9,168.4,11.9z"/>
	<path id="XMLID_100_" class="st1" d="M27.5,65.5v2.8h-2.1v-2.9c0-3.6-1.4-6.3-5.1-6.3s-5.1,2.7-5.1,6.3v17.5c0,3.6,1.4,6.3,5.1,6.3
		s5.1-2.7,5.1-6.3v-4h2.1v3.8c0,4.8-2.1,8.5-7.2,8.5c-5.1,0-7.2-3.6-7.2-8.5V65.5c0-4.8,2.1-8.5,7.2-8.5
		C25.4,57,27.5,60.7,27.5,65.5z"/>
	<path id="XMLID_102_" class="st1" d="M31,65.5c0-4.9,2.3-8.5,7.3-8.5c5.2,0,7.4,3.6,7.4,8.5v17.2c0,4.9-2.3,8.5-7.4,8.5
		c-5.1,0-7.3-3.6-7.3-8.5V65.5z M33.2,82.9c0,3.6,1.4,6.3,5.1,6.3c3.7,0,5.2-2.7,5.2-6.3V65.4c0-3.6-1.5-6.3-5.2-6.3
		c-3.7,0-5.1,2.7-5.1,6.3V82.9z"/>
	<path id="XMLID_105_" class="st1" d="M51.4,90.9h-2V57.3h2.9l10.1,28.4V57.3h2v33.6h-2.4L51.4,61V90.9z"/>
	<path id="XMLID_107_" class="st1" d="M82.3,65.4v0.7h-2.1v-0.9c0-3.6-1.3-6.2-5-6.2c-3.6,0-5,2.6-5,6.2c0,8.2,12.1,8.3,12.1,17.6
		c0,4.8-2.1,8.4-7.2,8.4c-5.1,0-7.2-3.6-7.2-8.4v-1.7H70v1.9c0,3.6,1.4,6.2,5.1,6.2c3.7,0,5.1-2.6,5.1-6.2c0-8.1-12.1-8.2-12.1-17.6
		c0-5,2.2-8.3,7.2-8.4C80.2,57,82.3,60.6,82.3,65.4z"/>
	<path id="XMLID_109_" class="st1" d="M88,82.8c0,3.6,1.3,6.4,5,6.4s5-2.8,5-6.4V57.3h2.1v25.4c0,4.8-2,8.5-7.2,8.5
		c-5.1,0-7.2-3.7-7.2-8.5V57.3H88V82.8z"/>
	<path id="XMLID_111_" class="st1" d="M104,90.9V57.3h2.2v31.6h10.6v2H104z"/>
	<path id="XMLID_113_" class="st1" d="M123.4,90.9V59.3h-6.9v-2h15.9v2h-6.8v31.6H123.4z"/>
	<path id="XMLID_115_" class="st1" d="M137.6,57.3v33.6h-2.2V57.3H137.6z"/>
	<path id="XMLID_117_" class="st1" d="M143.4,90.9h-2V57.3h2.9l10.1,28.4V57.3h2v33.6h-2.4l-10.5-30V90.9z"/>
	<path id="XMLID_119_" class="st1" d="M174.5,65.5V68h-2.1v-2.6c0-3.6-1.4-6.3-5.1-6.3s-5.1,2.7-5.1,6.3v17.5c0,3.6,1.4,6.3,5.1,6.3
		s5.1-2.7,5.1-6.3v-7.2h-4.5v-2h6.6v9.1c0,4.8-2.1,8.5-7.2,8.5c-5.1,0-7.2-3.6-7.2-8.5V65.5c0-4.8,2.1-8.5,7.2-8.5
		C172.4,57,174.5,60.7,174.5,65.5z"/>
</g>
</svg>
